:SAMPLES-PER-SECOND 30
:FULLY-SPECIFIED
:DEGREES
512
root  -32.9001 35.0452 3.89011 -172.024 80.3139 179.993
RightUpLeg  -3.83261 -10.847 -0.552256
RightLeg  1.58283 10.3522 -0.375375
RightFoot  5.46214 0.000429911 1.08874
RightToes  -34.5424 -0.175583 -0.269607
Spine  -2.79054 2.36921 0.0818863
Spine1  -5.45101 4.85356 0.70916
HEad  -30.0614 40.2288 -2.65048
LeftShoulder1  -1.94126e-019 -3.10601e-018 -2.51263e-017
LeftArm  40.5332 -5.87513 -88.0424
LeftForeArm  36.9589 -36.7076 -6.14749
LeftHand  0.221059 -5.33883 -2.07778
RightShoulder  -4.96962e-017 0 -2.36833e-017
RightArm  64.4135 13.0082 97.3161
RightForeArm  144.504 76.2038 135.928
RightHand  0.0952503 -6.11583 -17.4649
LeftUpLeg  -4.48995 2.3299 -0.0644957
LeftLeg  0.153976 13.6369 -0.832762
LeftFoot  8.25638 -0.142002 2.16504
LeftToes  -18.3507 1.89912e-006 4.45198e-008
513
root  -32.885 35.0431 3.85102 -172.241 79.9422 179.784
RightUpLeg  -3.67045 -11.2242 -0.636109
RightLeg  1.44939 10.3427 -0.399056
RightFoot  5.45186 0.000878873 1.08226
RightToes  -34.617 -0.175801 -0.269464
Spine  -2.75726 2.73026 -0.062343
Spine1  -5.37652 5.56377 0.398856
HEad  -31.6531 36.8696 -4.62085
LeftShoulder1  -1.94126e-019 -3.10601e-018 -2.51263e-017
LeftArm  39.0697 -6.88048 -88.5328
LeftForeArm  32.8953 -37.6235 -6.63741
LeftHand  0.107784 -4.17936 -1.03328
RightShoulder  -4.96962e-017 0 -2.36833e-017
RightArm  58.8619 10.5948 96.1263
RightForeArm  152.843 77.0783 134.748
RightHand  -0.494196 -1.35179 -14.1125
LeftUpLeg  -4.58123 1.9671 -0.130233
LeftLeg  0.354986 13.6268 -0.784668
LeftFoot  8.13577 -0.139762 2.13068
LeftToes  -18.2725 1.89912e-006 4.45198e-008
514
root  -32.885 35.0393 3.81029 -172.678 79.2958 179.441
RightUpLeg  -3.47903 -11.6345 -0.756278
RightLeg  1.47903 10.1303 -0.385755
RightFoot  5.36306 0.00374059 1.04051
RightToes  -34.6789 -0.176019 -0.269333
Spine  -2.79466 2.60727 0.039049
Spine1  -5.43644 5.29987 0.58975
HEad  -32.6245 35.5094 -7.9078
LeftShoulder1  -1.94126e-019 -3.10601e-018 -2.51263e-017
LeftArm  38.4791 -7.08421 -88.3743
LeftForeArm  31.7109 -38.4713 -6.94865
LeftHand  -0.0521842 -3.29927 0.938303
RightShoulder  -4.96962e-017 0 -2.36833e-017
RightArm  56.099 11.2553 94.4722
RightForeArm  165.514 77.1542 137.222
RightHand  -0.788642 0.553402 -15.4577
LeftUpLeg  -4.66473 1.27576 -0.210082
LeftLeg  0.609181 13.6842 -0.727634
LeftFoot  8.00994 -0.137796 2.10207
LeftToes  -18.0895 1.89912e-006 4.45198e-008
515
root  -32.8795 35.0355 3.76347 -173.296 78.5957 179.021
RightUpLeg  -3.23345 -12.1145 -0.933516
RightLeg  1.6496 9.92809 -0.34868
RightFoot  5.21387 0.00717157 0.989816
RightToes  -34.7565 -0.176235 -0.269211
Spine  -2.89685 2.21941 0.179749
Spine1  -5.62798 4.50058 0.862684
HEad  -32.6195 35.7052 -10.5719
LeftShoulder1  -1.94126e-019 -3.10601e-018 -2.51263e-017
LeftArm  37.7699 -6.92614 -87.876
LeftForeArm  30.7162 -38.717 -7.08049
LeftHand  -0.0936757 -3.06082 1.51854
RightShoulder  -4.96962e-017 0 -2.36833e-017
RightArm  53.0882 12.7795 92.9171
RightForeArm  165.408 76.9222 137.952
RightHand  -0.726309 0.224372 -15.0564
LeftUpLeg  -4.53885 0.888233 -0.322076
LeftLeg  0.65425 13.3947 -0.702067
LeftFoot  7.9932 -0.13417 2.04923
LeftToes  -17.9274 1.89912e-006 4.45198e-008
516
root  -32.8664 35.0354 3.71717 -173.832 78.1812 178.626
RightUpLeg  -3.1021 -12.219 -1.10168
RightLeg  1.88878 9.61718 -0.297858
RightFoot  5.07051 0.0109961 0.932686
RightToes  -34.6817 -0.176448 -0.269101
Spine  -2.95862 1.89307 0.210906
Spine1  -5.73832 3.81978 0.906337
HEad  -32.3448 35.9195 -11.6214
LeftShoulder1  -1.94126e-019 -3.10601e-018 -2.51263e-017
LeftArm  36.8994 -7.07908 -87.818
LeftForeArm  30.0943 -37.6481 -6.81756
LeftHand  -0.0325901 -3.05948 0.677503
RightShoulder  -4.96962e-017 0 -2.36833e-017
RightArm  49.0094 13.976 91.8834
RightForeArm  161.223 76.6819 137.847
RightHand  -0.574218 -0.942542 -14.9361
LeftUpLeg  -4.29785 0.871581 -0.447073
LeftLeg  0.437905 12.9923 -0.730097
LeftFoot  8.15174 -0.132087 2.02207
LeftToes  -18.0298 1.89912e-006 4.45198e-008
517
root  -32.8529 35.0368 3.69003 -174.031 78.1356 178.501
RightUpLeg  -3.10607 -12.1243 -1.17658
RightLeg  2.13198 9.46807 -0.253211
RightFoot  4.93981 0.0134527 0.894273
RightToes  -34.4921 -0.176656 -0.269001
Spine  -3.03287 1.77551 0.151736
Spine1  -5.87876 3.55383 0.763017
HEad  -32.6435 35.3833 -11.7346
LeftShoulder1  -1.94126e-019 -3.10601e-018 -2.51263e-017
LeftArm  36.2004 -7.36449 -87.9215
LeftForeArm  30.2527 -36.2342 -6.4214
LeftHand  0.0642087 -3.56748 -0.582104
RightShoulder  -4.96962e-017 0 -2.36833e-017
RightArm  44.281 14.468 91.3663
RightForeArm  156.921 76.4978 137.528
RightHand  -0.364001 -2.68257 -15.2879
LeftUpLeg  -4.07005 0.873115 -0.502002
LeftLeg  0.182729 12.923 -0.783491
LeftFoot  8.24523 -0.132148 2.03008
LeftToes  -18.0261 1.89912e-006 4.45198e-008
